<?xml version="1.0" encoding="UTF-8" standalone="no"?>
<svg
   xmlns:dc="http://purl.org/dc/elements/1.1/"
   xmlns:cc="http://creativecommons.org/ns#"
   xmlns:rdf="http://www.w3.org/1999/02/22-rdf-syntax-ns#"
   xmlns:svg="http://www.w3.org/2000/svg"
   xmlns="http://www.w3.org/2000/svg"
   height="70.199997"
   width="311.79999"
   xml:space="preserve"
   enable-background="new 0 0 595.3 841.9"
   viewBox="0 0 311.79999 70.199995"
   y="0px"
   x="0px"
   id="Layer_1"
   version="1.1"><metadata
     id="metadata139"><rdf:RDF><cc:Work
         rdf:about=""><dc:format>image/svg+xml</dc:format><dc:type
           rdf:resource="http://purl.org/dc/dcmitype/StillImage" /><dc:title></dc:title></cc:Work></rdf:RDF></metadata><defs
     id="defs137" /><g
     transform="translate(-95.8,-573.6)"
     id="g33"><path
       style="fill:#ffa400"
       id="path35"
       d="m 144.1,599.9 1.5,-0.9 c 1,1.8 2.6,4.4 3.8,6.6 l 8.4,-14.5 -28.1,-16.2 14.4,25 z" /><polygon
       style="fill:#ffa400"
       id="polygon37"
       points="122.3,643.8 95.8,597.8 95.8,628.5 " /><path
       style="fill:#ffa400"
       id="path39"
       d="m 159.2,597.8 -7.1,12.4 c 2.6,4.5 5.2,9 7.1,12.4 l 0,-24.8 z" /><path
       style="fill:#ffa400"
       id="path41"
       d="m 157.8,629.3 c 0,-0.1 -0.1,-0.1 -0.1,-0.2 l -8.3,-14.3 -16.8,29 25.2,-14.5 z" /><polygon
       style="fill:#ffa400"
       id="polygon43"
       points="127.5,643.5 146.7,610.2 142.2,602.4 113.8,619.8 " /><polygon
       style="fill:#ffa400"
       id="polygon45"
       points="127.6,573.7 127.5,573.6 97.2,591.1 113.2,618.8 143.1,600.5 " /></g><g
     transform="translate(-95.8,-573.6)"
     id="g47"><path
       style="fill:#55565a"
       id="path49"
       d="m 199.7,642.9 -13.3,0 0,-68.6 13.3,0 0,68.6 z" /><path
       style="fill:#55565a"
       id="path51"
       d="m 226.6,607.2 5.9,-15.1 14.1,0 -11.6,24.8 12,26 -14.1,0 -6.2,-15.9 -6.2,15.9 -14.2,0 12,-26 -11.5,-24.9 14.1,0 5.7,15.2 z" /><path
       style="fill:#55565a"
       id="path53"
       d="m 299.3,642.9 -5.4,0 0,-32.7 -32.1,0 0,32.7 -5.4,0 0,-68.4 5.4,0 0,30.7 32.1,0 0,-30.7 5.4,0 0,68.4 z" /><path
       style="fill:#55565a"
       id="path55"
       d="m 314.2,577.4 c 0,-1.1 0.3,-2 0.9,-2.7 0.6,-0.8 1.4,-1.1 2.5,-1.1 1.1,0 1.9,0.4 2.6,1.1 0.6,0.8 0.9,1.7 0.9,2.7 0,1 -0.3,2 -0.9,2.7 -0.6,0.7 -1.5,1.1 -2.6,1.1 -1.1,0 -1.9,-0.4 -2.5,-1.1 -0.6,-0.7 -0.9,-1.6 -0.9,-2.7 z m 6,65.5 -5.3,0 0,-50.8 5.3,0 0,50.8 z" /><path
       style="fill:#55565a"
       id="path57"
       d="m 348.1,634.7 12.5,-42.7 5.4,0 -15.8,50.8 -4.2,0 -15.9,-50.8 5.4,0 12.6,42.7 z" /><path
       style="fill:#55565a"
       id="path59"
       d="m 391.6,643.8 c -2.8,0 -5.4,-0.5 -7.8,-1.4 -2.4,-0.9 -4.4,-2.3 -6.1,-4.2 -1.7,-1.9 -3,-4.3 -4,-7.2 -0.9,-2.9 -1.4,-6.3 -1.4,-10.2 l 0,-5.8 c 0,-4.3 0.5,-7.9 1.5,-10.9 1,-3 2.3,-5.5 4,-7.4 1.7,-1.9 3.6,-3.3 5.8,-4.2 2.2,-0.9 4.5,-1.3 7,-1.3 5.6,0 9.8,1.8 12.7,5.5 2.9,3.7 4.3,9.3 4.3,16.9 l 0,4.4 -30.2,0 0,2.9 c 0,3.1 0.3,5.8 1,8.1 0.7,2.3 1.7,4.2 2.9,5.7 1.3,1.5 2.8,2.6 4.5,3.4 1.8,0.7 3.7,1.1 5.8,1.1 2.6,0 4.9,-0.4 6.9,-1.3 1.9,-0.9 3.7,-2.3 5.3,-4.2 l 2.7,3.5 c -0.7,0.9 -1.5,1.8 -2.4,2.6 -0.9,0.8 -2,1.5 -3.2,2.2 -1.2,0.6 -2.6,1.1 -4.2,1.5 -1.4,0.2 -3.2,0.3 -5.1,0.3 z M 390.7,596 c -1.8,0 -3.5,0.3 -5.1,0.9 -1.6,0.6 -2.9,1.6 -4,3 -1.1,1.4 -2.1,3.1 -2.7,5.3 -0.6,2.2 -1.1,4.8 -1.2,7.8 l 24.9,0 0,-1.4 c -0.1,-2.5 -0.3,-4.7 -0.8,-6.6 -0.5,-1.9 -1.2,-3.6 -2.2,-4.9 -1,-1.3 -2.2,-2.4 -3.6,-3.1 -1.6,-0.6 -3.3,-1 -5.3,-1 z" /></g></svg>