<?xml version="1.0" encoding="UTF-8" standalone="no"?>
<svg
   xmlns:dc="http://purl.org/dc/elements/1.1/"
   xmlns:cc="http://creativecommons.org/ns#"
   xmlns:rdf="http://www.w3.org/1999/02/22-rdf-syntax-ns#"
   xmlns:svg="http://www.w3.org/2000/svg"
   xmlns="http://www.w3.org/2000/svg"
   xmlns:sodipodi="http://sodipodi.sourceforge.net/DTD/sodipodi-0.dtd"
   xmlns:inkscape="http://www.inkscape.org/namespaces/inkscape"
   height="256"
   width="256"
   xml:space="preserve"
   enable-background="new 0 0 595.3 841.9"
   viewBox="0 0 256 255.99999"
   y="0px"
   x="0px"
   id="Layer_1"
   version="1.1"
   inkscape:version="0.91 r13725"
   sodipodi:docname="lxHive.icon.dark.svg"><sodipodi:namedview
     pagecolor="#ffffff"
     bordercolor="#666666"
     borderopacity="1"
     objecttolerance="10"
     gridtolerance="10"
     guidetolerance="10"
     inkscape:pageopacity="0"
     inkscape:pageshadow="2"
     inkscape:window-width="1918"
     inkscape:window-height="1013"
     id="namedview12"
     showgrid="false"
     inkscape:zoom="0.83266133"
     inkscape:cx="126.79903"
     inkscape:cy="131.50605"
     inkscape:window-x="1680"
     inkscape:window-y="0"
     inkscape:window-maximized="1"
     inkscape:current-layer="Layer_1" /><metadata
     id="metadata139"><rdf:RDF><cc:Work
         rdf:about=""><dc:format>image/svg+xml</dc:format><dc:type
           rdf:resource="http://purl.org/dc/dcmitype/StillImage" /><dc:title></dc:title></cc:Work></rdf:RDF></metadata><defs
     id="defs137" /><g
     style="fill:#55565a;fill-opacity:1"
     transform="matrix(1.3942045,0,0,1.3942045,-107.62056,-309.71051)"
     id="g5"><path
       d="m 212.2,291 3.8,-2.3 c 2.7,4.6 6.7,11.5 10,17.2 l 21.8,-37.8 -73.3,-42.3 37.7,65.2 z"
       id="path7"
       style="fill:#55565a;fill-opacity:1"
       inkscape:connector-curvature="0" /><polygon
       points="86.4,365.5 155.6,405.4 86.4,285.6 "
       id="polygon9"
       style="fill:#55565a;fill-opacity:1" /><path
       d="M 251.6,285.6 233,317.8 c 6.7,11.6 13.5,23.4 18.6,32.2 l 0,-64.4 z"
       id="path11"
       style="fill:#55565a;fill-opacity:1"
       inkscape:connector-curvature="0" /><path
       d="m 247.9,367.6 c -0.1,-0.2 -0.2,-0.4 -0.3,-0.6 l -21.6,-37.2 -43.6,75.6 65.5,-37.8 z"
       id="path13"
       style="fill:#55565a;fill-opacity:1"
       inkscape:connector-curvature="0" /><polygon
       points="207.4,297.5 133.3,342.8 169,404.6 219.1,317.8 "
       id="polygon15"
       style="fill:#55565a;fill-opacity:1" /><polygon
       points="209.7,292.6 169.4,222.7 169,222.5 90.1,268 131.8,340.2 "
       id="polygon17"
       style="fill:#55565a;fill-opacity:1" /></g></svg>